# xmcd
#
# Track frame offsets: 
#        150
#        2268
#        14382
#        30025
#        39172
#        52013
#        61970
#        76325
#        86573
#        91869
#        102285
#        111735
#        122662
#        138808
#        149449
#        164155
#        178538
#        189455
#        203119
#        213801
#        223489
#        232615
#        235180
#        248170
#        264033
#        274777
#        293035
#        307888
#        318256
#        337276
#        347797
#
# Disc length: 4772 seconds
#
# Revision: 0
# Processed by: cddbd v1.5.2PL0 Copyright (c) Steve Scherf et al.
# Submitted via: ExactAudioCopy v0.95b3
#
DISCID=ad12a21f
DTITLE=Simon and Garfunkel  - The Alternate Bookends  FLAC
DYEAR=1900
DGENRE=
TTITLE0=Bookends Theme (alternate instrumental)
TTITLE1=Save The Life Of My Child (alternate lyrics)
TTITLE2=America (alternate)
TTITLE3=Overs (outtake)
TTITLE4=Groundhog (demo of unreleased song)
TTITLE5=Old Friends (demo)
TTITLE6=Fakin' It (single mix)
TTITLE7=Punky's Dilemma (demo)
TTITLE8=Mrs Robinson (from The Graduate)
TTITLE9=Hazy Shade of Winter (single mix)
TTITLE10=At The Zoo (alternate lyrics)
TTITLE11=You Don't Know Where Your Interest Lies (b-side)
TTITLE12=America (Paris 1970)
TTITLE13=Overs (Hollywood Bowl 1968)
TTITLE14=Old Friends (Hollywood Bowl 1968)
TTITLE15=Fakin' It (Miami University 1969)
TTITLE16=Punky's Dilemma (Hollywood Bowl 1968)
TTITLE17=Mrs Robinson (Miami University 1969)
TTITLE18=A Hazy Shade Of Winter (Johns Hopkins University 1967)
TTITLE19=At The Zoo (unknown venue)
TTITLE20=You don't know where your interest lies (Tufts University 196
TTITLE20=7)
TTITLE21=Bookends Theme (mono)
TTITLE22=Save The Life Of My Child (mono)
TTITLE23=America (mono)
TTITLE24=Overs (mono)
TTITLE25=Old Friends-Bookends Theme (mono)
TTITLE26=Fakin' It (mono)
TTITLE27=Punky's Dilemma (mono)
TTITLE28=Mrs Robnson (mono)
TTITLE29=A Hazy Shade Of Winter (mono)
TTITLE30=At The Zoo (mono)
EXTD=
EXTT0=
EXTT1=
EXTT2=
EXTT3=
EXTT4=
EXTT5=
EXTT6=
EXTT7=
EXTT8=
EXTT9=
EXTT10=
EXTT11=
EXTT12=
EXTT13=
EXTT14=
EXTT15=
EXTT16=
EXTT17=
EXTT18=
EXTT19=
EXTT20=
EXTT21=
EXTT22=
EXTT23=
EXTT24=
EXTT25=
EXTT26=
EXTT27=
EXTT28=
EXTT29=
EXTT30=
PLAYORDER=
